<svg width="508" height="508" viewBox="0 0 508 508" fill="none" xmlns="http://www.w3.org/2000/svg">
<mask id="mask0_44_71" style="mask-type:alpha" maskUnits="userSpaceOnUse" x="0" y="0" width="508" height="508">
<path fill-rule="evenodd" clip-rule="evenodd" d="M151.833 0H356.167C409.092 0 428.312 5.44 447.667 15.792C466.869 26.061 481.939 41.131 492.208 60.332C502.56 79.688 508 98.908 508 151.833V356.167C508 409.092 502.56 428.312 492.208 447.667C481.939 466.869 466.869 481.939 447.668 492.208C428.312 502.56 409.092 508 356.167 508H151.833C98.908 508 79.688 502.56 60.333 492.208C41.131 481.939 26.061 466.869 15.792 447.668C5.44 428.312 0 409.092 0 356.167V151.833C0 98.908 5.44 79.688 15.792 60.333C26.06 41.13 41.13 26.06 60.332 15.791C79.688 5.44 98.908 0 151.833 0Z" fill="#D9D9D9"/>
</mask>
<g mask="url(#mask0_44_71)">
<rect x="-2" y="-2" width="512" height="512" fill="url(#paint0_linear_44_71)"/>
<rect x="-2" y="-2" width="512" height="512" fill="url(#paint1_linear_44_71)"/>
<g filter="url(#filter0_di_44_71)">
<path d="M168.893 400.895C178.621 406.415 186.61 408.527 192.86 407.23C199.109 405.934 205.078 400.443 210.768 390.758L254.061 317.028L296.414 390.185C298.571 393.519 300.625 396.392 302.576 398.803C304.528 401.214 306.626 403.056 308.871 404.33C312.799 406.559 316.989 407.229 321.44 406.34C325.891 405.451 331.129 403.487 337.155 400.45L339.039 399.47C346.969 395.526 352.356 391.133 355.201 386.291C357.499 382.379 358.227 378.167 357.386 373.655C356.545 369.142 354.485 364.156 351.208 358.695L307.495 283.265L394.642 284.442C401.038 284.595 406.374 283.898 410.65 282.351C414.927 280.804 418.214 278.075 420.511 274.164C421.934 271.742 422.947 268.903 423.551 265.645C423.954 263.473 424.241 261.097 424.412 258.518L424.667 252.123C424.589 245.25 423.759 239.657 422.176 235.344C420.594 231.032 417.885 227.788 414.05 225.612C411.805 224.338 409.086 223.447 405.892 222.938C402.698 222.43 399.093 222.092 395.076 221.923L309.534 222.601L352.817 148.962C358.506 139.277 360.36 131.451 358.378 125.484C356.396 119.517 350.54 113.774 340.812 108.254L338.988 107.219C329.26 101.699 321.271 99.5872 315.022 100.884C308.772 102.18 302.803 107.671 297.113 117.356L253.96 190.775L211.829 117.949C209.782 114.428 207.656 111.359 205.451 108.743C203.247 106.126 200.929 104.128 198.497 102.748C194.662 100.572 190.374 99.9083 185.635 100.758C180.895 101.607 175.723 104.043 170.118 108.064L168.373 109.123C164.962 111.533 161.981 113.846 159.432 116.062C156.883 118.279 154.897 120.598 153.474 123.019C151.286 126.744 150.486 130.76 151.074 135.067C151.662 139.373 153.641 144.284 157.012 149.797L201.756 223.298L113.379 223.751C106.929 223.692 101.542 224.422 97.2188 225.943C92.8958 227.463 89.6128 230.132 87.3697 233.95C85.9473 236.371 84.9534 239.284 84.3879 242.688C83.8224 246.092 83.4709 249.928 83.3334 254.196L83.4367 255.931C83.3275 262.698 84.0271 268.248 85.5354 272.58C87.0436 276.913 89.8089 280.22 93.8312 282.502C96.0762 283.776 98.8325 284.657 102.1 285.145C105.368 285.634 108.963 285.935 112.887 286.051L198.267 285.576L155.064 359.152C149.375 368.837 147.521 376.663 149.503 382.63C151.265 387.934 156.087 393.061 163.97 398.012L168.893 400.895Z" fill="url(#paint2_linear_44_71)"/>
</g>
<mask id="mask1_44_71" style="mask-type:luminance" maskUnits="userSpaceOnUse" x="-2" y="-2" width="512" height="512">
<path d="M151.833 -2H356.167C409.658 -2 429.055 3.57 448.611 14.028C468.166 24.486 483.514 39.834 493.972 59.389C504.43 78.945 510 98.342 510 151.833V356.167C510 409.658 504.43 429.055 493.972 448.611C483.514 468.166 468.166 483.514 448.611 493.972C429.055 504.43 409.658 510 356.167 510H151.833C98.342 510 78.945 504.43 59.389 493.972C39.834 483.514 24.486 468.166 14.028 448.611C3.57 429.055 -2 409.658 -2 356.167V151.833C-2 98.342 3.57 78.945 14.028 59.389C24.486 39.834 39.834 24.486 59.389 14.028C78.945 3.57 98.342 -2 151.833 -2Z" fill="white"/>
</mask>
<g mask="url(#mask1_44_71)">
<path fill-rule="evenodd" clip-rule="evenodd" d="M151.833 0H356.167C409.092 0 428.312 5.44 447.667 15.792C466.869 26.061 481.939 41.131 492.208 60.332C502.56 79.688 508 98.908 508 151.833V356.167C508 409.092 502.56 428.312 492.208 447.667C481.939 466.869 466.869 481.939 447.668 492.208C428.312 502.56 409.092 508 356.167 508H151.833C98.908 508 79.688 502.56 60.333 492.208C41.131 481.939 26.061 466.869 15.792 447.668C5.44 428.312 0 409.092 0 356.167V151.833C0 98.908 5.44 79.688 15.792 60.333C26.06 41.13 41.13 26.06 60.332 15.791C79.688 5.44 98.908 0 151.833 0Z" stroke="url(#paint3_linear_44_71)" stroke-width="4"/>
</g>
</g>
<defs>
<filter id="filter0_di_44_71" x="77.6334" y="100.4" width="352.733" height="322.9" filterUnits="userSpaceOnUse" color-interpolation-filters="sRGB">
<feFlood flood-opacity="0" result="BackgroundImageFix"/>
<feColorMatrix in="SourceAlpha" type="matrix" values="0 0 0 0 0 0 0 0 0 0 0 0 0 0 0 0 0 0 127 0" result="hardAlpha"/>
<feOffset dy="10"/>
<feGaussianBlur stdDeviation="2.85"/>
<feComposite in2="hardAlpha" operator="out"/>
<feColorMatrix type="matrix" values="0 0 0 0 0 0 0 0 0 0 0 0 0 0 0 0 0 0 0.5 0"/>
<feBlend mode="normal" in2="BackgroundImageFix" result="effect1_dropShadow_44_71"/>
<feBlend mode="normal" in="SourceGraphic" in2="effect1_dropShadow_44_71" result="shape"/>
<feColorMatrix in="SourceAlpha" type="matrix" values="0 0 0 0 0 0 0 0 0 0 0 0 0 0 0 0 0 0 127 0" result="hardAlpha"/>
<feOffset dy="3"/>
<feGaussianBlur stdDeviation="1.1"/>
<feComposite in2="hardAlpha" operator="arithmetic" k2="-1" k3="1"/>
<feColorMatrix type="matrix" values="0 0 0 0 0.78694 0 0 0 0 0.904123 0 0 0 0 1 0 0 0 1 0"/>
<feBlend mode="normal" in2="shape" result="effect2_innerShadow_44_71"/>
</filter>
<linearGradient id="paint0_linear_44_71" x1="-2" y1="-2" x2="-2" y2="510" gradientUnits="userSpaceOnUse">
<stop stop-color="#F48C06"/>
<stop offset="1" stop-color="#F48C06"/>
</linearGradient>
<linearGradient id="paint1_linear_44_71" x1="254" y1="-2" x2="254" y2="510" gradientUnits="userSpaceOnUse">
<stop stop-color="#303133"/>
<stop offset="1" stop-color="#151513"/>
</linearGradient>
<linearGradient id="paint2_linear_44_71" x1="254" y1="100.4" x2="254" y2="407.6" gradientUnits="userSpaceOnUse">
<stop stop-color="#1D74F1"/>
<stop offset="1" stop-color="#18C7F6"/>
</linearGradient>
<linearGradient id="paint3_linear_44_71" x1="25400" y1="0" x2="25400" y2="50800" gradientUnits="userSpaceOnUse">
<stop stop-color="#C8C8C8" stop-opacity="0.7"/>
<stop offset="1" stop-color="#979797" stop-opacity="0.5"/>
</linearGradient>
</defs>
</svg>
